<mxfile host="Electron" agent="Mozilla/5.0 (Windows NT 10.0; Win64; x64) AppleWebKit/537.36 (KHTML, like Gecko) draw.io/24.7.8 Chrome/128.0.6613.36 Electron/32.0.1 Safari/537.36" version="24.7.8">
  <diagram name="Page-1" id="e7e014a7-5840-1c2e-5031-d8a46d1fe8dd">
    <mxGraphModel dx="1235" dy="751" grid="1" gridSize="10" guides="1" tooltips="1" connect="1" arrows="1" fold="1" page="1" pageScale="1" pageWidth="900" pageHeight="1600" background="none" math="0" shadow="0">
      <root>
        <mxCell id="0" />
        <mxCell id="1" parent="0" />
        <mxCell id="lamFJUV2KZfZTIPYrqLE-44" style="edgeStyle=orthogonalEdgeStyle;rounded=0;orthogonalLoop=1;jettySize=auto;html=1;entryX=0.5;entryY=0;entryDx=0;entryDy=0;" parent="1" source="lamFJUV2KZfZTIPYrqLE-41" target="lamFJUV2KZfZTIPYrqLE-43" edge="1">
          <mxGeometry relative="1" as="geometry" />
        </mxCell>
        <mxCell id="lamFJUV2KZfZTIPYrqLE-41" value="" style="ellipse;whiteSpace=wrap;html=1;aspect=fixed;fillColor=#000000;strokeColor=none;" parent="1" vertex="1">
          <mxGeometry x="760" y="40" width="40" height="40" as="geometry" />
        </mxCell>
        <mxCell id="lamFJUV2KZfZTIPYrqLE-42" value="" style="rounded=1;whiteSpace=wrap;html=1;arcSize=50;" parent="1" vertex="1">
          <mxGeometry x="735" y="100" width="90" height="30" as="geometry" />
        </mxCell>
        <mxCell id="lamFJUV2KZfZTIPYrqLE-46" style="edgeStyle=orthogonalEdgeStyle;rounded=0;orthogonalLoop=1;jettySize=auto;html=1;entryX=0.5;entryY=0;entryDx=0;entryDy=0;" parent="1" source="lamFJUV2KZfZTIPYrqLE-43" target="lamFJUV2KZfZTIPYrqLE-45" edge="1">
          <mxGeometry relative="1" as="geometry" />
        </mxCell>
        <mxCell id="lamFJUV2KZfZTIPYrqLE-43" value="ввід x, y, R" style="text;html=1;align=center;verticalAlign=middle;whiteSpace=wrap;rounded=0;" parent="1" vertex="1">
          <mxGeometry x="745" y="100" width="70" height="30" as="geometry" />
        </mxCell>
        <mxCell id="lamFJUV2KZfZTIPYrqLE-64" style="edgeStyle=orthogonalEdgeStyle;rounded=0;orthogonalLoop=1;jettySize=auto;html=1;entryX=0;entryY=0.5;entryDx=0;entryDy=0;" parent="1" source="lamFJUV2KZfZTIPYrqLE-45" target="lamFJUV2KZfZTIPYrqLE-49" edge="1">
          <mxGeometry relative="1" as="geometry" />
        </mxCell>
        <mxCell id="lamFJUV2KZfZTIPYrqLE-66" style="edgeStyle=orthogonalEdgeStyle;rounded=0;orthogonalLoop=1;jettySize=auto;html=1;entryX=0.5;entryY=0;entryDx=0;entryDy=0;" parent="1" source="lamFJUV2KZfZTIPYrqLE-45" target="lamFJUV2KZfZTIPYrqLE-65" edge="1">
          <mxGeometry relative="1" as="geometry" />
        </mxCell>
        <mxCell id="lamFJUV2KZfZTIPYrqLE-45" value="" style="rhombus;whiteSpace=wrap;html=1;" parent="1" vertex="1">
          <mxGeometry x="765" y="170" width="30" height="30" as="geometry" />
        </mxCell>
        <mxCell id="lamFJUV2KZfZTIPYrqLE-76" style="edgeStyle=orthogonalEdgeStyle;rounded=0;orthogonalLoop=1;jettySize=auto;html=1;entryX=1;entryY=0.5;entryDx=0;entryDy=0;" parent="1" source="lamFJUV2KZfZTIPYrqLE-49" target="lamFJUV2KZfZTIPYrqLE-74" edge="1">
          <mxGeometry relative="1" as="geometry">
            <mxPoint x="1090" y="480" as="targetPoint" />
            <Array as="points">
              <mxPoint x="1220" y="485" />
            </Array>
          </mxGeometry>
        </mxCell>
        <mxCell id="lamFJUV2KZfZTIPYrqLE-49" value="" style="rounded=1;whiteSpace=wrap;html=1;arcSize=50;" parent="1" vertex="1">
          <mxGeometry x="1170" y="158" width="246" height="54" as="geometry" />
        </mxCell>
        <mxCell id="lamFJUV2KZfZTIPYrqLE-60" value="[x &amp;gt;= 0 &amp;amp;&amp;amp; y &amp;gt;= 0 &amp;amp;&amp;amp; (pow(x, 2) + pow(y, 2) &amp;lt;= pow(R, 2))]" style="text;html=1;align=center;verticalAlign=middle;whiteSpace=wrap;rounded=0;" parent="1" vertex="1">
          <mxGeometry x="825" y="150" width="315" height="30" as="geometry" />
        </mxCell>
        <mxCell id="lamFJUV2KZfZTIPYrqLE-61" value="[x &amp;lt;= 0 &amp;amp;&amp;amp; y &amp;lt;= 0 &amp;amp;&amp;amp; y &amp;gt;= x]" style="text;html=1;align=center;verticalAlign=middle;whiteSpace=wrap;rounded=0;" parent="1" vertex="1">
          <mxGeometry x="810" y="250" width="155" height="30" as="geometry" />
        </mxCell>
        <mxCell id="lamFJUV2KZfZTIPYrqLE-62" value="вивід&amp;nbsp;&quot;Точка належить до зафарбованої області (чверть кола).&quot;" style="text;html=1;align=center;verticalAlign=middle;whiteSpace=wrap;rounded=0;" parent="1" vertex="1">
          <mxGeometry x="1173" y="157" width="240" height="60" as="geometry" />
        </mxCell>
        <mxCell id="lamFJUV2KZfZTIPYrqLE-68" style="edgeStyle=orthogonalEdgeStyle;rounded=0;orthogonalLoop=1;jettySize=auto;html=1;entryX=0;entryY=0.5;entryDx=0;entryDy=0;" parent="1" source="lamFJUV2KZfZTIPYrqLE-65" target="lamFJUV2KZfZTIPYrqLE-67" edge="1">
          <mxGeometry relative="1" as="geometry" />
        </mxCell>
        <mxCell id="lamFJUV2KZfZTIPYrqLE-70" style="edgeStyle=orthogonalEdgeStyle;rounded=0;orthogonalLoop=1;jettySize=auto;html=1;" parent="1" source="lamFJUV2KZfZTIPYrqLE-65" target="lamFJUV2KZfZTIPYrqLE-69" edge="1">
          <mxGeometry relative="1" as="geometry" />
        </mxCell>
        <mxCell id="lamFJUV2KZfZTIPYrqLE-65" value="" style="rhombus;whiteSpace=wrap;html=1;" parent="1" vertex="1">
          <mxGeometry x="765" y="270" width="30" height="30" as="geometry" />
        </mxCell>
        <mxCell id="lamFJUV2KZfZTIPYrqLE-75" style="edgeStyle=orthogonalEdgeStyle;rounded=0;orthogonalLoop=1;jettySize=auto;html=1;entryX=0.5;entryY=0;entryDx=0;entryDy=0;" parent="1" target="lamFJUV2KZfZTIPYrqLE-74" edge="1">
          <mxGeometry relative="1" as="geometry">
            <mxPoint x="1069.9955172413793" y="305" as="sourcePoint" />
          </mxGeometry>
        </mxCell>
        <mxCell id="lamFJUV2KZfZTIPYrqLE-67" value="" style="rounded=1;whiteSpace=wrap;html=1;arcSize=50;" parent="1" vertex="1">
          <mxGeometry x="982" y="265" width="210" height="40" as="geometry" />
        </mxCell>
        <mxCell id="lamFJUV2KZfZTIPYrqLE-63" value="вивід &quot;Точка належить до зафарбованої області (трикутник).&quot;" style="text;html=1;align=center;verticalAlign=middle;whiteSpace=wrap;rounded=0;" parent="1" vertex="1">
          <mxGeometry x="982" y="274.5" width="209.97" height="20" as="geometry" />
        </mxCell>
        <mxCell id="lamFJUV2KZfZTIPYrqLE-73" style="edgeStyle=orthogonalEdgeStyle;rounded=0;orthogonalLoop=1;jettySize=auto;html=1;entryX=0.5;entryY=0;entryDx=0;entryDy=0;" parent="1" source="lamFJUV2KZfZTIPYrqLE-69" target="lamFJUV2KZfZTIPYrqLE-72" edge="1">
          <mxGeometry relative="1" as="geometry" />
        </mxCell>
        <mxCell id="lamFJUV2KZfZTIPYrqLE-69" value="" style="rounded=1;whiteSpace=wrap;html=1;arcSize=50;" parent="1" vertex="1">
          <mxGeometry x="700" y="360" width="160" height="50" as="geometry" />
        </mxCell>
        <mxCell id="wzkuWVeHrRwY9Xg5-AwD-1" value="" style="edgeStyle=orthogonalEdgeStyle;rounded=0;orthogonalLoop=1;jettySize=auto;html=1;" parent="1" source="lamFJUV2KZfZTIPYrqLE-71" target="lamFJUV2KZfZTIPYrqLE-72" edge="1">
          <mxGeometry relative="1" as="geometry" />
        </mxCell>
        <mxCell id="lamFJUV2KZfZTIPYrqLE-71" value="вивід&amp;nbsp;&quot;Точка не належить до зафарбованої області.&quot;" style="text;html=1;align=center;verticalAlign=middle;whiteSpace=wrap;rounded=0;" parent="1" vertex="1">
          <mxGeometry x="705.5" y="372" width="149" height="30" as="geometry" />
        </mxCell>
        <mxCell id="lamFJUV2KZfZTIPYrqLE-79" style="edgeStyle=orthogonalEdgeStyle;rounded=0;orthogonalLoop=1;jettySize=auto;html=1;entryX=0.5;entryY=0;entryDx=0;entryDy=0;" parent="1" source="lamFJUV2KZfZTIPYrqLE-72" edge="1">
          <mxGeometry relative="1" as="geometry">
            <mxPoint x="780" y="570" as="targetPoint" />
          </mxGeometry>
        </mxCell>
        <mxCell id="lamFJUV2KZfZTIPYrqLE-72" value="" style="rhombus;whiteSpace=wrap;html=1;" parent="1" vertex="1">
          <mxGeometry x="765" y="470" width="30" height="30" as="geometry" />
        </mxCell>
        <mxCell id="M8gLha_cPzjjHqG2FGjI-1" style="edgeStyle=orthogonalEdgeStyle;rounded=0;orthogonalLoop=1;jettySize=auto;html=1;entryX=1;entryY=0.5;entryDx=0;entryDy=0;" edge="1" parent="1" source="lamFJUV2KZfZTIPYrqLE-74" target="lamFJUV2KZfZTIPYrqLE-72">
          <mxGeometry relative="1" as="geometry" />
        </mxCell>
        <mxCell id="lamFJUV2KZfZTIPYrqLE-74" value="" style="rhombus;whiteSpace=wrap;html=1;" parent="1" vertex="1">
          <mxGeometry x="1020.03" y="470" width="30" height="30" as="geometry" />
        </mxCell>
        <mxCell id="lamFJUV2KZfZTIPYrqLE-104" value="" style="ellipse;html=1;shape=endState;fillColor=#000000;strokeColor=#ff0000;" parent="1" vertex="1">
          <mxGeometry x="765" y="570" width="30" height="30" as="geometry" />
        </mxCell>
      </root>
    </mxGraphModel>
  </diagram>
</mxfile>
